<svg xmlns="http://www.w3.org/2000/svg" viewBox="0 0 512 512" width="512" height="512" role="img" aria-label="Jago Bahasa">
  <defs>
    <linearGradient id="g" x1="0" y1="0" x2="1" y2="1">
      <stop offset="0" stop-color="#7c6cff"/>
      <stop offset="1" stop-color="#4d3ddb"/>
    </linearGradient>
    <linearGradient id="g2" x1="0" y1="0" x2="1" y2="1">
      <stop offset="0" stop-color="#ffd86b"/>
      <stop offset="1" stop-color="#ff9f43"/>
    </linearGradient>
  </defs>
  <rect width="512" height="512" rx="112" fill="url(#g)"/>
  <g fill="#fff">
    <path d="M150 196c0-13 10-23 23-23h86c13 0 23 10 23 23v110c0 13-10 23-23 23h-49l-37 33c-7 6-18 1-18-9v-24h-5c-13 0-23-10-23-23z" opacity=".95"/>
  </g>
  <g fill="url(#g2)">
    <path d="M255 168c0-12 9-21 21-21h84c12 0 21 9 21 21v92c0 12-9 21-21 21h-4v22c0 9-11 14-17 8l-34-30h-29c-12 0-21-9-21-21z" opacity=".98"/>
  </g>
  <g fill="#4d3ddb" font-family="Georgia, 'Times New Roman', serif" font-weight="700">
    <text x="206" y="276" font-size="86" text-anchor="middle" fill="#4d3ddb">A</text>
    <text x="324" y="246" font-size="64" text-anchor="middle" fill="#7c4a00">文</text>
  </g>
</svg>
